{"title":"Eternal 2004 DVDRip Xvid AC3 BigPerm LKRG","uid":6839242,"size":792192499,"categoryP":"video","categoryS":"movies","magnet":"?xt=urn:btih:43ba4a98b449d5dda81eb7797106a74101ab2f84&amp;dn=Eternal+2004+DVDRip+Xvid+AC3+BigPerm+LKRG&amp;tr=udp%3A%2F%2Ftracker.openbittorrent.com%3A80&amp;tr=udp%3A%2F%2Fopen.demonii.com%3A1337&amp;tr=udp%3A%2F%2Ftracker.coppersurfer.tk%3A6969&amp;tr=udp%3A%2F%2Fexodus.desync.com%3A6969","seeders":1,"leechers":0,"uploader":".BONE.","files":2,"time":1322116185,"description":"PLOT\n\nDetective Raymond Pope is a detective of questionable morals, searching for his missing wife. His investigation leads\nhim to the wealthy estate of the enigmatic Elizabeth Kane and her young maid Irina. Under Elizabeth's fascinating looks\nand aristocratic manners hides a terrifying secret,shared by her companion Irina.\n &lt;a href=&quot;\nhttp://www.imdb.com/title/tt0382019/&quot; rel=&quot;nofollow&quot; target=&quot;_NEW&quot;&gt;\nhttp://www.imdb.com/title/tt0382019/&lt;/a&gt;\n\nEncoded By .......: BigPerm\nRuntime ..........: 1h 48mn\nFile Size ........: 755 MB\nResolution .......: 624 x 352\nIMDb URL .........: http://www.imdb.com/title/tt0382019/\nGenre ............: Horror,Mystery,Thriller\nLanguage .........: English\nSubtitles ........: None\nVideo\nID : 0\nFormat : MPEG-4 Visual\nFormat profile : Advanced Simple@L5\nFormat settings, BVOP : Yes\nFormat settings, QPel : No\nFormat settings, GMC : No warppoints\nFormat settings, Matrix : Default (H.263)\nMuxing mode : Packed bitstream\nCodec ID : XVID\nCodec ID/Hint : XviD\nDuration : 1h 48mn\nBit rate : 744 Kbps\nWidth : 624 pixels\nHeight : 352 pixels\nDisplay aspect ratio : 16:9\nFrame rate : 23.976 fps\nColor space : YUV\nChroma subsampling : 4:2:0\nBit depth : 8 bits\nScan type : Progressive\nCompression mode : Lossy\nBits/(Pixel*Frame) : 0.141\nStream size : 575 MiB (76%)\nWriting library : XviD 1.2.1 (UTC 2008-12-04)\nAudio\nID : 1\nFormat : AC-3\nFormat/Info : Audio Coding 3\nMode extension : CM (complete main)\nCodec ID : 2000\nDuration : 1h 48mn\nBit rate mode : Constant\nBit rate : 224 Kbps\nChannel(s) : 2 channels\nChannel positions : Front: L R\nSampling rate : 48.0 KHz\nBit depth : 16 bits\nCompression mode : Lossy\nStream size : 173 MiB (23%)\nAlignment : Split accross interleaves\nInterleave, duration : 42 ms (1.00 video frame)\nInterleave, preload duration : 500 ms","torrent":{"xt":"urn:btih:43ba4a98b449d5dda81eb7797106a74101ab2f84","amp;dn":"Eternal+2004+DVDRip+Xvid+AC3+BigPerm+LKRG","amp;tr":["udp%3A%2F%2Ftracker.openbittorrent.com%3A80","udp%3A%2F%2Fopen.demonii.com%3A1337","udp%3A%2F%2Ftracker.coppersurfer.tk%3A6969","udp%3A%2F%2Fexodus.desync.com%3A6969"],"infoHash":"43ba4a98b449d5dda81eb7797106a74101ab2f84","infoHashBuffer":{"type":"Buffer","data":[67,186,74,152,180,73,213,221,168,30,183,121,113,6,167,65,1,171,47,132]},"announce":[],"urlList":[]}}